<svg width="139" height="16" viewBox="0 0 139 16" fill="none" xmlns="http://www.w3.org/2000/svg">
<path d="M6.04998 7.794C6.04998 7.36467 6.02664 6.982 5.97998 6.646C5.93331 6.30067 5.84931 6.00667 5.72798 5.764C5.61598 5.52133 5.45264 5.33467 5.23798 5.204C5.03264 5.07333 4.76664 5.008 4.43998 5.008C4.09464 5.008 3.80998 5.06867 3.58598 5.19C3.36198 5.31133 3.17998 5.46533 3.03998 5.652C2.93731 5.78267 2.85331 5.92267 2.78798 6.072C2.73198 6.22133 2.68531 6.39867 2.64798 6.604C2.61064 6.80933 2.58264 7.04733 2.56398 7.318C2.55464 7.57933 2.54998 7.892 2.54998 8.256C2.54998 8.564 2.57331 8.88133 2.61998 9.208C2.66664 9.53467 2.75531 9.83333 2.88598 10.104C3.01664 10.3653 3.19864 10.58 3.43198 10.748C3.67464 10.916 3.99198 11 4.38398 11C4.76664 11 5.06998 10.9253 5.29398 10.776C5.51798 10.6267 5.68598 10.412 5.79798 10.132C5.90998 9.852 5.97998 9.516 6.00798 9.124C6.03598 8.72267 6.04998 8.27933 6.04998 7.794ZM0.267977 10.804H1.34598V1.102H0.267977V0.906H2.54998V6.114H2.57798C2.70864 5.75 2.93264 5.442 3.24998 5.19C3.56731 4.938 3.98264 4.812 4.49598 4.812C4.89731 4.812 5.27531 4.90067 5.62998 5.078C5.98464 5.246 6.29731 5.47467 6.56798 5.764C6.83864 6.044 7.05331 6.37533 7.21198 6.758C7.37064 7.14067 7.44998 7.542 7.44998 7.962C7.44998 8.39133 7.36598 8.802 7.19798 9.194C7.03931 9.57667 6.81998 9.91733 6.53998 10.216C6.25998 10.5147 5.93331 10.7527 5.55998 10.93C5.19598 11.1073 4.80864 11.196 4.39798 11.196C4.08064 11.196 3.80998 11.14 3.58598 11.028C3.37131 10.9253 3.18931 10.7993 3.03998 10.65C2.89998 10.5007 2.79264 10.3467 2.71798 10.188C2.64331 10.0293 2.58731 9.894 2.54998 9.782H2.52198V11H0.267977V10.804ZM13.1028 7.332C13.1215 7.20133 13.1308 7.08 13.1308 6.968C13.1308 6.856 13.1308 6.73933 13.1308 6.618C13.1308 6.30067 13.0981 6.03933 13.0328 5.834C12.9768 5.62867 12.8928 5.46533 12.7808 5.344C12.6781 5.22267 12.5475 5.13867 12.3888 5.092C12.2395 5.036 12.0761 5.008 11.8988 5.008C11.5815 5.008 11.3201 5.07333 11.1148 5.204C10.9095 5.32533 10.7461 5.49333 10.6248 5.708C10.5035 5.92267 10.4101 6.17 10.3448 6.45C10.2888 6.73 10.2515 7.024 10.2328 7.332H13.1028ZM10.2188 7.528C10.2188 7.62133 10.2141 7.71933 10.2048 7.822C10.2048 7.91533 10.2048 8.03667 10.2048 8.186C10.2048 8.494 10.2235 8.816 10.2608 9.152C10.2981 9.488 10.3775 9.79133 10.4988 10.062C10.6295 10.3327 10.8161 10.5567 11.0588 10.734C11.3108 10.9113 11.6421 11 12.0528 11C12.4635 11 12.7995 10.9393 13.0608 10.818C13.3315 10.6967 13.5415 10.552 13.6908 10.384C13.8495 10.2067 13.9661 10.0293 14.0408 9.852C14.1155 9.67467 14.1715 9.53 14.2088 9.418L14.4188 9.46C14.3908 9.56267 14.3348 9.712 14.2508 9.908C14.1761 10.0947 14.0501 10.286 13.8728 10.482C13.7048 10.6687 13.4715 10.8367 13.1728 10.986C12.8835 11.126 12.5055 11.196 12.0388 11.196C11.5721 11.196 11.1381 11.1213 10.7368 10.972C10.3448 10.8227 10.0041 10.608 9.7148 10.328C9.42547 10.048 9.20147 9.71667 9.0428 9.334C8.88414 8.942 8.8048 8.508 8.8048 8.032C8.8048 7.62133 8.88414 7.22467 9.0428 6.842C9.2108 6.45 9.4348 6.10467 9.7148 5.806C10.0041 5.50733 10.3401 5.26933 10.7228 5.092C11.1055 4.90533 11.5161 4.812 11.9548 4.812C12.2161 4.812 12.4961 4.85867 12.7948 4.952C13.0935 5.04533 13.3688 5.19933 13.6208 5.414C13.8821 5.61933 14.0968 5.89467 14.2648 6.24C14.4421 6.58533 14.5308 7.01467 14.5308 7.528H10.2188ZM19.4168 7.57H19.3888C19.3701 7.69133 19.2161 7.81267 18.9268 7.934L17.8768 8.354C17.5781 8.47533 17.3495 8.648 17.1908 8.872C17.0321 9.08667 16.9528 9.35733 16.9528 9.684C16.9528 9.824 16.9668 9.96867 16.9948 10.118C17.0228 10.2673 17.0741 10.4027 17.1488 10.524C17.2235 10.636 17.3261 10.7293 17.4568 10.804C17.5968 10.8787 17.7741 10.916 17.9888 10.916C18.2968 10.916 18.5441 10.8507 18.7308 10.72C18.9268 10.5893 19.0715 10.426 19.1648 10.23C19.2675 10.034 19.3328 9.824 19.3608 9.6C19.3981 9.36667 19.4168 9.15667 19.4168 8.97V7.57ZM21.8668 10.846C21.7455 10.9393 21.6008 11.0187 21.4328 11.084C21.2648 11.1587 21.0595 11.196 20.8168 11.196C20.3688 11.196 20.0421 11.1027 19.8368 10.916C19.6408 10.72 19.5055 10.4493 19.4308 10.104H19.4028C19.3655 10.188 19.3141 10.2953 19.2488 10.426C19.1835 10.5473 19.0808 10.6687 18.9408 10.79C18.8101 10.902 18.6328 10.9953 18.4088 11.07C18.1848 11.154 17.9001 11.196 17.5548 11.196C17.1628 11.196 16.8501 11.1493 16.6168 11.056C16.3835 10.972 16.2015 10.8647 16.0708 10.734C15.9401 10.6033 15.8515 10.4587 15.8048 10.3C15.7675 10.132 15.7488 9.978 15.7488 9.838C15.7488 9.51133 15.8141 9.25 15.9448 9.054C16.0755 8.858 16.2435 8.704 16.4488 8.592C16.6635 8.47067 16.8968 8.37267 17.1488 8.298C17.4101 8.22333 17.6715 8.144 17.9328 8.06C18.2408 7.95733 18.4928 7.86867 18.6888 7.794C18.8941 7.71933 19.0528 7.63067 19.1648 7.528C19.2768 7.416 19.3515 7.28067 19.3888 7.122C19.4355 6.954 19.4588 6.73 19.4588 6.45C19.4588 6.226 19.4448 6.02533 19.4168 5.848C19.3888 5.67067 19.3375 5.52133 19.2628 5.4C19.1881 5.26933 19.0808 5.17133 18.9408 5.106C18.8008 5.04067 18.6141 5.008 18.3808 5.008C18.0728 5.008 17.8161 5.064 17.6108 5.176C17.4148 5.27867 17.3168 5.45133 17.3168 5.694C17.3168 5.85267 17.3308 6.01133 17.3588 6.17C17.3868 6.31933 17.4008 6.43133 17.4008 6.506C17.4008 6.63667 17.3541 6.74867 17.2608 6.842C17.1675 6.926 17.0321 6.968 16.8548 6.968C16.5468 6.968 16.3555 6.912 16.2808 6.8C16.2061 6.688 16.1688 6.54333 16.1688 6.366C16.1688 6.16067 16.2155 5.96467 16.3088 5.778C16.4021 5.59133 16.5375 5.428 16.7148 5.288C16.9015 5.13867 17.1301 5.022 17.4008 4.938C17.6808 4.854 17.9981 4.812 18.3528 4.812C18.7821 4.812 19.1415 4.868 19.4308 4.98C19.7201 5.08267 19.9535 5.22733 20.1308 5.414C20.3081 5.59133 20.4341 5.79667 20.5088 6.03C20.5835 6.254 20.6208 6.492 20.6208 6.744V10.23C20.6208 10.5007 20.6628 10.6827 20.7468 10.776C20.8308 10.8693 20.9521 10.916 21.1108 10.916C21.2135 10.916 21.3208 10.8973 21.4328 10.86C21.5448 10.8227 21.6521 10.7667 21.7548 10.692L21.8668 10.846ZM29.881 11H27.627V9.586H27.599C27.515 9.77267 27.4124 9.964 27.291 10.16C27.179 10.3467 27.0344 10.5193 26.857 10.678C26.689 10.8273 26.4884 10.9487 26.255 11.042C26.031 11.1447 25.765 11.196 25.457 11.196C25.0837 11.196 24.7804 11.154 24.547 11.07C24.3137 10.986 24.1317 10.8973 24.001 10.804C23.9357 10.7573 23.861 10.7013 23.777 10.636C23.7024 10.5613 23.6324 10.4633 23.567 10.342C23.5017 10.2207 23.4457 10.0667 23.399 9.88C23.3524 9.684 23.329 9.446 23.329 9.166V5.19H22.251V4.994H24.533V9.292C24.533 9.53467 24.547 9.75867 24.575 9.964C24.6124 10.1693 24.6777 10.3513 24.771 10.51C24.8644 10.6593 24.9857 10.7807 25.135 10.874C25.2844 10.958 25.4804 11 25.723 11C25.9284 11 26.1384 10.9393 26.353 10.818C26.577 10.6967 26.7777 10.524 26.955 10.3C27.1417 10.076 27.2957 9.81 27.417 9.502C27.5384 9.18467 27.599 8.83 27.599 8.438V5.19H26.535V4.994H28.803V10.804H29.881V11ZM30.4519 4.994H31.5299V3.188C31.6045 3.216 31.6745 3.23933 31.7399 3.258C31.8052 3.27667 31.9172 3.286 32.0759 3.286C32.2159 3.286 32.3372 3.272 32.4399 3.244C32.5425 3.20667 32.6405 3.15067 32.7339 3.076V4.994H34.7219V5.19H32.7339V9.768C32.7339 10.0293 32.7572 10.244 32.8039 10.412C32.8599 10.5707 32.9299 10.6967 33.0139 10.79C33.0979 10.874 33.1865 10.93 33.2799 10.958C33.3825 10.986 33.4805 11 33.5739 11C33.9005 11 34.1619 10.8833 34.3579 10.65C34.5632 10.4073 34.6939 10.132 34.7499 9.824L34.9459 9.894C34.9179 10.0153 34.8759 10.1507 34.8199 10.3C34.7639 10.4493 34.6752 10.594 34.5539 10.734C34.4419 10.8647 34.2925 10.972 34.1059 11.056C33.9192 11.1493 33.6859 11.196 33.4059 11.196C32.7059 11.196 32.2159 11.0607 31.9359 10.79C31.6652 10.5193 31.5299 10.1367 31.5299 9.642V5.19H30.4519V4.994ZM34.806 4.994H38.236V5.19H37.06L38.866 9.586L40.756 5.19H39.594V4.994H41.736V5.19H40.98L38.67 10.594C38.4926 10.9953 38.3246 11.3967 38.166 11.798C38.0073 12.2087 37.8486 12.6193 37.69 13.03C37.5593 13.366 37.4286 13.66 37.298 13.912C37.1673 14.164 37.0273 14.3693 36.878 14.528C36.738 14.6867 36.584 14.8033 36.416 14.878C36.248 14.962 36.052 15.004 35.828 15.004C35.5573 15.004 35.338 14.962 35.17 14.878C35.0113 14.794 34.8853 14.696 34.792 14.584C34.6986 14.472 34.638 14.3553 34.61 14.234C34.582 14.1127 34.568 14.01 34.568 13.926C34.568 13.6927 34.6333 13.5153 34.764 13.394C34.8946 13.282 35.0533 13.226 35.24 13.226C35.3053 13.226 35.3753 13.2307 35.45 13.24C35.5246 13.2587 35.5946 13.2867 35.66 13.324C35.7253 13.3613 35.7813 13.4127 35.828 13.478C35.8746 13.5433 35.898 13.6227 35.898 13.716C35.898 13.8467 35.856 13.968 35.772 14.08C35.6973 14.2013 35.66 14.332 35.66 14.472C35.66 14.5933 35.6926 14.6727 35.758 14.71C35.8233 14.7473 35.912 14.766 36.024 14.766C36.1733 14.766 36.3086 14.7287 36.43 14.654C36.5606 14.5887 36.6866 14.4767 36.808 14.318C36.9293 14.1593 37.0506 13.9493 37.172 13.688C37.2933 13.436 37.4286 13.1233 37.578 12.75L38.194 11.182L35.772 5.19H34.806V4.994ZM45.4567 4.994H48.8307V5.19H47.6687L49.2367 9.558L50.6927 6.1L50.3427 5.19H49.7547V4.994H52.5407V5.19H51.6027L53.2267 9.53L54.9767 5.19H53.6607V4.994H55.9427V5.19H55.2007L52.6947 11.462L50.7907 6.38L48.6627 11.462L46.4087 5.19H45.4567V4.994ZM57.1916 1.732C57.1916 1.52667 57.2616 1.354 57.4016 1.214C57.551 1.06467 57.7283 0.99 57.9336 0.99C58.139 0.99 58.3116 1.06467 58.4516 1.214C58.601 1.354 58.6756 1.52667 58.6756 1.732C58.6756 1.93733 58.601 2.11467 58.4516 2.264C58.3116 2.404 58.139 2.474 57.9336 2.474C57.7283 2.474 57.551 2.404 57.4016 2.264C57.2616 2.11467 57.1916 1.93733 57.1916 1.732ZM56.2816 10.804H57.3596V5.19H56.2816V4.994H58.5636V10.804H59.6416V11H56.2816V10.804ZM60.2702 4.994H61.3482V3.188C61.4229 3.216 61.4929 3.23933 61.5582 3.258C61.6236 3.27667 61.7356 3.286 61.8942 3.286C62.0342 3.286 62.1556 3.272 62.2582 3.244C62.3609 3.20667 62.4589 3.15067 62.5522 3.076V4.994H64.5402V5.19H62.5522V9.768C62.5522 10.0293 62.5756 10.244 62.6222 10.412C62.6782 10.5707 62.7482 10.6967 62.8322 10.79C62.9162 10.874 63.0049 10.93 63.0982 10.958C63.2009 10.986 63.2989 11 63.3922 11C63.7189 11 63.9802 10.8833 64.1762 10.65C64.3816 10.4073 64.5122 10.132 64.5682 9.824L64.7642 9.894C64.7362 10.0153 64.6942 10.1507 64.6382 10.3C64.5822 10.4493 64.4936 10.594 64.3722 10.734C64.2602 10.8647 64.1109 10.972 63.9242 11.056C63.7376 11.1493 63.5042 11.196 63.2242 11.196C62.5242 11.196 62.0342 11.0607 61.7542 10.79C61.4836 10.5193 61.3482 10.1367 61.3482 9.642V5.19H60.2702V4.994ZM65.0443 10.804H66.1223V1.102H65.0443V0.906H67.3263V6.408H67.3543C67.401 6.28667 67.4803 6.13733 67.5923 5.96C67.7043 5.77333 67.8537 5.60067 68.0403 5.442C68.2363 5.274 68.4697 5.134 68.7403 5.022C69.0203 4.90067 69.3517 4.84 69.7343 4.84C70.3503 4.84 70.8497 4.98933 71.2323 5.288C71.6243 5.58667 71.8203 6.06267 71.8203 6.716V10.804H72.8983V11H69.5383V10.804H70.6163V6.282C70.6163 5.918 70.5277 5.61933 70.3503 5.386C70.1823 5.15267 69.9163 5.036 69.5523 5.036C69.2537 5.036 68.969 5.10133 68.6983 5.232C68.4277 5.36267 68.1897 5.54467 67.9843 5.778C67.779 6.01133 67.6157 6.28667 67.4943 6.604C67.3823 6.92133 67.3263 7.26667 67.3263 7.64V10.804H68.4043V11H65.0443V10.804ZM81.3914 7.57H81.3634C81.3447 7.69133 81.1907 7.81267 80.9014 7.934L79.8514 8.354C79.5527 8.47533 79.3241 8.648 79.1654 8.872C79.0067 9.08667 78.9274 9.35733 78.9274 9.684C78.9274 9.824 78.9414 9.96867 78.9694 10.118C78.9974 10.2673 79.0487 10.4027 79.1234 10.524C79.1981 10.636 79.3007 10.7293 79.4314 10.804C79.5714 10.8787 79.7487 10.916 79.9634 10.916C80.2714 10.916 80.5187 10.8507 80.7054 10.72C80.9014 10.5893 81.0461 10.426 81.1394 10.23C81.2421 10.034 81.3074 9.824 81.3354 9.6C81.3727 9.36667 81.3914 9.15667 81.3914 8.97V7.57ZM83.8414 10.846C83.7201 10.9393 83.5754 11.0187 83.4074 11.084C83.2394 11.1587 83.0341 11.196 82.7914 11.196C82.3434 11.196 82.0167 11.1027 81.8114 10.916C81.6154 10.72 81.4801 10.4493 81.4054 10.104H81.3774C81.3401 10.188 81.2887 10.2953 81.2234 10.426C81.1581 10.5473 81.0554 10.6687 80.9154 10.79C80.7847 10.902 80.6074 10.9953 80.3834 11.07C80.1594 11.154 79.8747 11.196 79.5294 11.196C79.1374 11.196 78.8247 11.1493 78.5914 11.056C78.3581 10.972 78.1761 10.8647 78.0454 10.734C77.9147 10.6033 77.8261 10.4587 77.7794 10.3C77.7421 10.132 77.7234 9.978 77.7234 9.838C77.7234 9.51133 77.7887 9.25 77.9194 9.054C78.0501 8.858 78.2181 8.704 78.4234 8.592C78.6381 8.47067 78.8714 8.37267 79.1234 8.298C79.3847 8.22333 79.6461 8.144 79.9074 8.06C80.2154 7.95733 80.4674 7.86867 80.6634 7.794C80.8687 7.71933 81.0274 7.63067 81.1394 7.528C81.2514 7.416 81.3261 7.28067 81.3634 7.122C81.4101 6.954 81.4334 6.73 81.4334 6.45C81.4334 6.226 81.4194 6.02533 81.3914 5.848C81.3634 5.67067 81.3121 5.52133 81.2374 5.4C81.1627 5.26933 81.0554 5.17133 80.9154 5.106C80.7754 5.04067 80.5887 5.008 80.3554 5.008C80.0474 5.008 79.7907 5.064 79.5854 5.176C79.3894 5.27867 79.2914 5.45133 79.2914 5.694C79.2914 5.85267 79.3054 6.01133 79.3334 6.17C79.3614 6.31933 79.3754 6.43133 79.3754 6.506C79.3754 6.63667 79.3287 6.74867 79.2354 6.842C79.1421 6.926 79.0067 6.968 78.8294 6.968C78.5214 6.968 78.3301 6.912 78.2554 6.8C78.1807 6.688 78.1434 6.54333 78.1434 6.366C78.1434 6.16067 78.1901 5.96467 78.2834 5.778C78.3767 5.59133 78.5121 5.428 78.6894 5.288C78.8761 5.13867 79.1047 5.022 79.3754 4.938C79.6554 4.854 79.9727 4.812 80.3274 4.812C80.7567 4.812 81.1161 4.868 81.4054 4.98C81.6947 5.08267 81.9281 5.22733 82.1054 5.414C82.2827 5.59133 82.4087 5.79667 82.4834 6.03C82.5581 6.254 82.5954 6.492 82.5954 6.744V10.23C82.5954 10.5007 82.6374 10.6827 82.7214 10.776C82.8054 10.8693 82.9267 10.916 83.0854 10.916C83.1881 10.916 83.2954 10.8973 83.4074 10.86C83.5194 10.8227 83.6267 10.7667 83.7294 10.692L83.8414 10.846ZM93.9601 7.794C93.9601 7.36467 93.9368 6.982 93.8901 6.646C93.8435 6.30067 93.7595 6.00667 93.6381 5.764C93.5261 5.52133 93.3628 5.33467 93.1481 5.204C92.9428 5.07333 92.6768 5.008 92.3501 5.008C92.0048 5.008 91.7201 5.06867 91.4961 5.19C91.2721 5.31133 91.0901 5.46533 90.9501 5.652C90.8475 5.78267 90.7635 5.92267 90.6981 6.072C90.6421 6.22133 90.5955 6.39867 90.5581 6.604C90.5208 6.80933 90.4928 7.04733 90.4741 7.318C90.4648 7.57933 90.4601 7.892 90.4601 8.256C90.4601 8.564 90.4835 8.88133 90.5301 9.208C90.5768 9.53467 90.6655 9.83333 90.7961 10.104C90.9268 10.3653 91.1088 10.58 91.3421 10.748C91.5848 10.916 91.9021 11 92.2941 11C92.6768 11 92.9801 10.9253 93.2041 10.776C93.4281 10.6267 93.5961 10.412 93.7081 10.132C93.8201 9.852 93.8901 9.516 93.9181 9.124C93.9461 8.72267 93.9601 8.27933 93.9601 7.794ZM88.1781 14.724H89.2561V5.19H88.1781V4.994H90.4321V6.17H90.4601C90.6001 5.778 90.8288 5.456 91.1461 5.204C91.4728 4.94267 91.8928 4.812 92.4061 4.812C92.8075 4.812 93.1855 4.90067 93.5401 5.078C93.8948 5.246 94.2075 5.47467 94.4781 5.764C94.7488 6.044 94.9635 6.37533 95.1221 6.758C95.2808 7.14067 95.3601 7.542 95.3601 7.962C95.3601 8.39133 95.2761 8.802 95.1081 9.194C94.9495 9.57667 94.7301 9.91733 94.4501 10.216C94.1701 10.5147 93.8435 10.7527 93.4701 10.93C93.1061 11.1073 92.7188 11.196 92.3081 11.196C91.9908 11.196 91.7201 11.14 91.4961 11.028C91.2815 10.9253 91.1041 10.804 90.9641 10.664C90.8241 10.5147 90.7168 10.3653 90.6421 10.216C90.5675 10.0573 90.5161 9.93133 90.4881 9.838H90.4601V14.724H91.5381V14.92H88.1781V14.724ZM104.051 11H101.797V9.586H101.769C101.685 9.77267 101.582 9.964 101.461 10.16C101.349 10.3467 101.204 10.5193 101.027 10.678C100.859 10.8273 100.658 10.9487 100.425 11.042C100.201 11.1447 99.935 11.196 99.627 11.196C99.2536 11.196 98.9503 11.154 98.717 11.07C98.4836 10.986 98.3016 10.8973 98.171 10.804C98.1056 10.7573 98.031 10.7013 97.947 10.636C97.8723 10.5613 97.8023 10.4633 97.737 10.342C97.6716 10.2207 97.6156 10.0667 97.569 9.88C97.5223 9.684 97.499 9.446 97.499 9.166V5.19H96.421V4.994H98.703V9.292C98.703 9.53467 98.717 9.75867 98.745 9.964C98.7823 10.1693 98.8476 10.3513 98.941 10.51C99.0343 10.6593 99.1556 10.7807 99.305 10.874C99.4543 10.958 99.6503 11 99.893 11C100.098 11 100.308 10.9393 100.523 10.818C100.747 10.6967 100.948 10.524 101.125 10.3C101.312 10.076 101.466 9.81 101.587 9.502C101.708 9.18467 101.769 8.83 101.769 8.438V5.19H100.705V4.994H102.973V10.804H104.051V11ZM104.762 10.804H105.84V5.19H104.762V4.994H107.016V6.408H107.044C107.081 6.268 107.142 6.10933 107.226 5.932C107.31 5.75467 107.426 5.58667 107.576 5.428C107.725 5.26 107.902 5.12 108.108 5.008C108.322 4.896 108.579 4.84 108.878 4.84C109.092 4.84 109.279 4.87733 109.438 4.952C109.596 5.01733 109.727 5.106 109.83 5.218C109.932 5.32067 110.007 5.442 110.054 5.582C110.1 5.722 110.124 5.862 110.124 6.002C110.124 6.31 110.054 6.51533 109.914 6.618C109.774 6.72067 109.61 6.772 109.424 6.772C109.013 6.772 108.808 6.64133 108.808 6.38C108.808 6.296 108.817 6.23067 108.836 6.184C108.854 6.128 108.873 6.07667 108.892 6.03C108.92 5.974 108.943 5.91333 108.962 5.848C108.98 5.78267 108.99 5.68933 108.99 5.568C108.99 5.26933 108.826 5.12 108.5 5.12C108.35 5.12 108.192 5.176 108.024 5.288C107.856 5.4 107.697 5.56333 107.548 5.778C107.408 5.99267 107.286 6.254 107.184 6.562C107.09 6.86067 107.044 7.206 107.044 7.598V10.804H108.262V11H104.762V10.804ZM116.259 7.794C116.259 7.36467 116.236 6.982 116.189 6.646C116.142 6.30067 116.058 6.00667 115.937 5.764C115.825 5.52133 115.662 5.33467 115.447 5.204C115.242 5.07333 114.976 5.008 114.649 5.008C114.304 5.008 114.019 5.06867 113.795 5.19C113.571 5.31133 113.389 5.46533 113.249 5.652C113.146 5.78267 113.062 5.92267 112.997 6.072C112.941 6.22133 112.894 6.39867 112.857 6.604C112.82 6.80933 112.792 7.04733 112.773 7.318C112.764 7.57933 112.759 7.892 112.759 8.256C112.759 8.564 112.782 8.88133 112.829 9.208C112.876 9.53467 112.964 9.83333 113.095 10.104C113.226 10.3653 113.408 10.58 113.641 10.748C113.884 10.916 114.201 11 114.593 11C114.976 11 115.279 10.9253 115.503 10.776C115.727 10.6267 115.895 10.412 116.007 10.132C116.119 9.852 116.189 9.516 116.217 9.124C116.245 8.72267 116.259 8.27933 116.259 7.794ZM110.477 14.724H111.555V5.19H110.477V4.994H112.731V6.17H112.759C112.899 5.778 113.128 5.456 113.445 5.204C113.772 4.94267 114.192 4.812 114.705 4.812C115.106 4.812 115.484 4.90067 115.839 5.078C116.194 5.246 116.506 5.47467 116.777 5.764C117.048 6.044 117.262 6.37533 117.421 6.758C117.58 7.14067 117.659 7.542 117.659 7.962C117.659 8.39133 117.575 8.802 117.407 9.194C117.248 9.57667 117.029 9.91733 116.749 10.216C116.469 10.5147 116.142 10.7527 115.769 10.93C115.405 11.1073 115.018 11.196 114.607 11.196C114.29 11.196 114.019 11.14 113.795 11.028C113.58 10.9253 113.403 10.804 113.263 10.664C113.123 10.5147 113.016 10.3653 112.941 10.216C112.866 10.0573 112.815 9.93133 112.787 9.838H112.759V14.724H113.837V14.92H110.477V14.724ZM120.414 8.004C120.414 8.66667 120.465 9.194 120.568 9.586C120.67 9.978 120.806 10.2813 120.974 10.496C121.142 10.7013 121.338 10.8367 121.562 10.902C121.786 10.9673 122.024 11 122.276 11C122.528 11 122.766 10.9673 122.99 10.902C123.214 10.8367 123.41 10.7013 123.578 10.496C123.746 10.2813 123.881 9.978 123.984 9.586C124.086 9.194 124.138 8.66667 124.138 8.004C124.138 7.444 124.1 6.97733 124.026 6.604C123.951 6.22133 123.834 5.91333 123.676 5.68C123.526 5.43733 123.335 5.26467 123.102 5.162C122.868 5.05933 122.593 5.008 122.276 5.008C121.958 5.008 121.683 5.05933 121.45 5.162C121.216 5.26467 121.02 5.43733 120.862 5.68C120.712 5.91333 120.6 6.22133 120.526 6.604C120.451 6.97733 120.414 7.444 120.414 8.004ZM119.014 8.004C119.014 7.54667 119.112 7.122 119.308 6.73C119.513 6.338 119.77 6.002 120.078 5.722C120.395 5.43267 120.745 5.20867 121.128 5.05C121.52 4.89133 121.902 4.812 122.276 4.812C122.649 4.812 123.027 4.89133 123.41 5.05C123.802 5.20867 124.152 5.43267 124.46 5.722C124.777 6.002 125.034 6.338 125.23 6.73C125.435 7.122 125.538 7.54667 125.538 8.004C125.538 8.44267 125.444 8.858 125.258 9.25C125.071 9.63267 124.824 9.96867 124.516 10.258C124.217 10.5473 123.872 10.776 123.48 10.944C123.088 11.112 122.686 11.196 122.276 11.196C121.865 11.196 121.464 11.112 121.072 10.944C120.68 10.776 120.33 10.5473 120.022 10.258C119.723 9.96867 119.48 9.63267 119.294 9.25C119.107 8.858 119.014 8.44267 119.014 8.004ZM126.947 9.04H127.101C127.166 9.264 127.25 9.49267 127.353 9.726C127.456 9.95 127.591 10.16 127.759 10.356C127.936 10.5427 128.151 10.6967 128.403 10.818C128.655 10.9393 128.958 11 129.313 11C129.612 11 129.878 10.9113 130.111 10.734C130.344 10.5473 130.461 10.2487 130.461 9.838C130.461 9.48333 130.368 9.236 130.181 9.096C130.004 8.94667 129.794 8.83 129.551 8.746L128.459 8.368C128.319 8.32133 128.165 8.26533 127.997 8.2C127.838 8.12533 127.689 8.02733 127.549 7.906C127.409 7.77533 127.292 7.612 127.199 7.416C127.115 7.22 127.073 6.968 127.073 6.66C127.073 6.39867 127.124 6.156 127.227 5.932C127.33 5.708 127.47 5.512 127.647 5.344C127.824 5.176 128.034 5.04533 128.277 4.952C128.529 4.85867 128.8 4.812 129.089 4.812C129.294 4.812 129.458 4.83067 129.579 4.868C129.71 4.896 129.822 4.92867 129.915 4.966C130.008 4.994 130.092 5.02667 130.167 5.064C130.242 5.092 130.33 5.106 130.433 5.106C130.536 5.106 130.61 5.06867 130.657 4.994H130.811V6.59H130.657C130.592 6.38467 130.517 6.18867 130.433 6.002C130.349 5.806 130.246 5.63333 130.125 5.484C130.013 5.33467 129.868 5.218 129.691 5.134C129.523 5.05 129.322 5.008 129.089 5.008C128.641 5.008 128.291 5.11067 128.039 5.316C127.796 5.512 127.675 5.778 127.675 6.114C127.675 6.41267 127.778 6.64133 127.983 6.8C128.198 6.94933 128.51 7.08933 128.921 7.22L129.943 7.556C130.382 7.70533 130.741 7.91067 131.021 8.172C131.301 8.43333 131.441 8.77867 131.441 9.208C131.441 9.46 131.39 9.70733 131.287 9.95C131.194 10.1927 131.049 10.4073 130.853 10.594C130.666 10.7713 130.433 10.916 130.153 11.028C129.882 11.14 129.57 11.196 129.215 11.196C129.01 11.196 128.818 11.1727 128.641 11.126C128.473 11.0887 128.314 11.0467 128.165 11C128.025 10.9533 127.894 10.9113 127.773 10.874C127.652 10.8273 127.54 10.804 127.437 10.804C127.334 10.804 127.26 10.8273 127.213 10.874C127.166 10.9113 127.129 10.9533 127.101 11H126.947V9.04ZM137.052 7.332C137.071 7.20133 137.08 7.08 137.08 6.968C137.08 6.856 137.08 6.73933 137.08 6.618C137.08 6.30067 137.047 6.03933 136.982 5.834C136.926 5.62867 136.842 5.46533 136.73 5.344C136.627 5.22267 136.497 5.13867 136.338 5.092C136.189 5.036 136.025 5.008 135.848 5.008C135.531 5.008 135.269 5.07333 135.064 5.204C134.859 5.32533 134.695 5.49333 134.574 5.708C134.453 5.92267 134.359 6.17 134.294 6.45C134.238 6.73 134.201 7.024 134.182 7.332H137.052ZM134.168 7.528C134.168 7.62133 134.163 7.71933 134.154 7.822C134.154 7.91533 134.154 8.03667 134.154 8.186C134.154 8.494 134.173 8.816 134.21 9.152C134.247 9.488 134.327 9.79133 134.448 10.062C134.579 10.3327 134.765 10.5567 135.008 10.734C135.26 10.9113 135.591 11 136.002 11C136.413 11 136.749 10.9393 137.01 10.818C137.281 10.6967 137.491 10.552 137.64 10.384C137.799 10.2067 137.915 10.0293 137.99 9.852C138.065 9.67467 138.121 9.53 138.158 9.418L138.368 9.46C138.34 9.56267 138.284 9.712 138.2 9.908C138.125 10.0947 137.999 10.286 137.822 10.482C137.654 10.6687 137.421 10.8367 137.122 10.986C136.833 11.126 136.455 11.196 135.988 11.196C135.521 11.196 135.087 11.1213 134.686 10.972C134.294 10.8227 133.953 10.608 133.664 10.328C133.375 10.048 133.151 9.71667 132.992 9.334C132.833 8.942 132.754 8.508 132.754 8.032C132.754 7.62133 132.833 7.22467 132.992 6.842C133.16 6.45 133.384 6.10467 133.664 5.806C133.953 5.50733 134.289 5.26933 134.672 5.092C135.055 4.90533 135.465 4.812 135.904 4.812C136.165 4.812 136.445 4.85867 136.744 4.952C137.043 5.04533 137.318 5.19933 137.57 5.414C137.831 5.61933 138.046 5.89467 138.214 6.24C138.391 6.58533 138.48 7.01467 138.48 7.528H134.168Z" fill="black"/>
</svg>
