<svg width="62" height="40" viewBox="0 0 62 40" fill="none" xmlns="http://www.w3.org/2000/svg">
<path fill-rule="evenodd" clip-rule="evenodd" d="M49.5732 6.34399C50.8658 6.34379 51.9308 7.00188 51.9923 7.83891L54.1834 37.6621C54.2149 38.0909 53.9742 38.5093 53.5171 38.82C53.0601 39.1307 52.4267 39.3065 51.7645 39.3064H13.0228C12.3607 39.3062 11.7277 39.1304 11.2709 38.8197C10.8142 38.5091 10.5735 38.0907 10.605 37.6621L12.7959 7.83891C12.8574 7.00194 13.9222 6.34387 15.2148 6.34399H22.8259C22.8259 2.87643 27.1622 0.0654297 32.5113 0.0654297C37.8604 0.0654297 42.1967 2.87643 42.1967 6.34399H49.5732ZM39.7753 6.34401C39.7708 3.74457 36.5212 1.63804 32.5112 1.63509C28.5013 1.63804 25.2517 3.74457 25.2472 6.34401H39.7753ZM15.2149 7.91362H22.8259V13.4074C22.8259 13.8408 23.368 14.1922 24.0366 14.1922C24.7052 14.1922 25.2473 13.8408 25.2473 13.4074V7.91362H39.7754V13.4074C39.7754 13.8408 40.3175 14.1922 40.9861 14.1922C41.6548 14.1922 42.1968 13.8408 42.1968 13.4074V7.91362H49.5454L51.297 31.4582H13.4853L15.2149 7.91362ZM13.3688 33.0277L13.0228 37.7367H51.7645L51.4137 33.0277H13.3688Z" fill="#333333"/>
</svg>
