<svg width="1410" height="430" xmlns="http://www.w3.org/2000/svg">
 <g>
  <title>Layer 1</title>
  <g id="svg_1" stroke="null">
   <path fill="#C1503D" d="m83.57761,281.71891c4.36723,0.51794 9.37669,0.90639 15.0284,1.16536c5.9086,0.25897 12.33099,0.38845 19.26718,0.38845c8.73445,0 17.34046,-0.38845 25.81802,-1.16536c8.73445,-1.03587 16.95512,-2.97813 24.66198,-5.82678c7.96377,-3.10761 15.28529,-7.38058 21.96458,-12.81891c6.93619,-5.69729 13.10168,-13.07787 18.49649,-22.14175c8.22066,-13.98426 13.87237,-28.22749 16.95512,-42.72969c3.33964,-14.76116 5.00946,-30.81717 5.00946,-48.16801c0,-20.45846 -1.92671,-38.97465 -5.78015,-55.54859c-3.85344,-16.83291 -10.27583,-31.07614 -19.26718,-42.72969c-8.73445,-11.91252 -20.42321,-21.10588 -35.06626,-27.58007c-14.64306,-6.4742 -32.7542,-9.71129 -54.33344,-9.71129c-6.42239,0 -12.33099,0.12948 -17.72581,0.38845c-5.13791,0.25897 -10.14738,0.51794 -15.0284,0.7769l0,265.70097l0.00001,0.00001zm-81.30734,0l42.77322,0l0,-265.70097l-42.77314,0l0,-5.43832l71.6739,0c3.59654,0 7.19284,0 10.78938,0c3.59654,-0.25897 7.19308,-0.51794 10.78962,-0.7769c3.59654,0 7.19308,0 10.78962,0c3.59654,-0.25897 7.19308,-0.38845 10.78962,-0.38845c7.70688,0 14.51461,0.12948 20.42321,0.38845c6.1655,0.25897 11.8172,0.7769 16.95512,1.55381c5.39481,0.51794 10.40428,1.42432 15.0284,2.71916c4.88102,1.03587 10.01893,2.46019 15.41374,4.27297c15.67064,5.17936 29.15766,12.17149 40.46108,20.97639c11.5603,8.54594 20.93701,18.5162 28.13008,29.91078c7.44998,11.39458 12.84479,23.82504 16.18443,37.29136c3.59654,13.46633 5.39481,27.58007 5.39481,42.34124c0,17.09188 -2.05516,32.50046 -6.1655,46.22575c-4.11033,13.46633 -9.76204,25.50833 -16.95512,36.12601c-7.19308,10.35871 -15.67064,19.42259 -25.43267,27.19162c-9.50514,7.51007 -19.78097,13.59581 -30.82749,18.25723c-6.1655,2.84865 -12.0741,5.04987 -17.72581,6.60368c-5.39481,1.55381 -11.04652,2.71916 -16.95512,3.49607c-5.6517,0.7769 -11.94565,1.29484 -18.88183,1.55381c-6.93619,0.25897 -14.89995,0.38845 -23.89131,0.38845c-3.85344,0 -7.96377,-0.12948 -12.33099,-0.38845c-4.36723,0 -8.73445,-0.12948 -13.10168,-0.38845c-4.36723,-0.25897 -8.73445,-0.51794 -13.10168,-0.7769c-4.11009,0 -8.09197,0 -11.94541,0l-65.50849,0l0,-5.43832l0.00001,-0.00002zm359.812,0l42.77314,0l0,-111.48564l-86.70231,-154.21533l-35.06707,0l0,-5.43832l117.91594,0l0,5.43832l-38.53436,0l77.06871,136.735l72.82994,-136.735l-38.9197,0l0,-5.43832l82.46353,0l0,5.43832l-37.37833,0l-75.142,141.78487l0,123.91609l42.77314,0l0,5.43832l-124.08063,0l0,-5.43832l0,0.00001zm256.84033,-133.23894c0,23.3071 1.54138,43.63607 4.62413,60.98692c3.08275,17.35084 8.22066,31.85304 15.41374,43.50659c7.19308,11.65355 16.44133,20.32897 27.74474,26.02626c11.30342,5.69729 25.30423,8.54594 42.00245,8.54594c16.44133,0 30.3137,-2.84865 41.6171,-8.54594c11.5603,-5.69729 20.93701,-14.37271 28.13008,-26.02626c7.19308,-11.65355 12.33099,-26.15575 15.41374,-43.50659c3.08275,-17.35084 4.62413,-37.67982 4.62413,-60.98692c0,-17.86878 -1.15603,-35.09014 -3.46809,-51.66408c-2.31206,-16.83291 -6.80774,-31.72356 -13.48703,-44.67195c-6.42239,-13.20736 -15.54219,-23.69555 -27.3594,-31.46459c-11.5603,-7.76903 -26.71716,-11.65355 -45.47054,-11.65355c-18.75338,0 -34.03869,3.88452 -45.85589,11.65355c-11.5603,7.76903 -20.68011,18.25723 -27.3594,31.46459c-6.42239,12.94839 -10.78962,27.83904 -13.10168,44.67195c-2.31206,16.57394 -3.46809,33.7953 -3.46809,51.66408l0.00001,0zm-44.31451,0c0,-20.71742 3.98189,-39.88104 11.94565,-57.49085c8.22066,-17.60981 18.62494,-32.88891 31.21282,-45.8373c12.84479,-12.94839 27.23095,-23.04813 43.15848,-30.29923c15.92753,-7.51007 31.85507,-11.2651 47.7826,-11.2651c16.95512,0 33.39645,3.75503 49.32398,11.2651c16.18443,7.2511 30.57059,17.35084 43.15929,30.29923c12.58789,12.94839 22.60682,28.22749 30.0568,45.8373c7.70688,17.60981 11.5603,36.77343 11.5603,57.49085c0,18.12775 -3.46809,35.86704 -10.40428,53.21788c-6.93619,17.35084 -16.44133,32.75943 -28.51542,46.22575c-12.0749,13.46633 -26.33262,24.34297 -42.77394,32.62994c-16.18443,8.28697 -33.65334,12.43045 -52.40673,12.43045c-19.26718,0 -37.12144,-4.014 -53.56276,-12.042c-16.44133,-8.028 -30.69904,-18.64568 -42.77314,-31.85304c-11.8172,-13.46633 -21.06545,-28.87491 -27.74474,-46.22575c-6.67929,-17.60981 -10.01893,-35.73756 -10.01893,-54.38324l0.00002,0.00001zm323.31209,55.16014l4.23878,0c2.82585,13.98426 6.42239,25.7673 10.78962,35.34911c4.62413,9.58181 9.63359,17.48033 15.0284,23.69555c5.39481,6.21523 11.04652,11.00613 16.95512,14.37271c5.9086,3.36658 11.8172,5.82678 17.72581,7.38058c6.1655,1.55381 11.94565,2.46019 17.34046,2.71916c5.6517,0.25897 10.91807,0.38845 15.79908,0.38845c13.61547,0 24.79043,-2.07174 33.52489,-6.21523c8.73445,-4.14348 15.67064,-9.32284 20.80856,-15.53807c5.13791,-6.4742 8.73445,-13.33684 10.78962,-20.58794c2.05516,-7.51007 3.08275,-14.37271 3.08275,-20.58794c0,-9.06387 -1.66982,-16.83291 -5.00946,-23.3071c-3.33964,-6.4742 -7.57843,-11.91252 -12.71634,-16.31497c-5.13791,-4.66142 -10.78962,-8.41645 -16.95512,-11.2651c-5.9086,-2.84865 -11.5603,-5.04987 -16.95512,-6.60368l-44.31451,-13.59581c-20.80856,-6.4742 -36.60764,-15.02013 -47.39727,-25.63781c-10.53273,-10.61768 -15.79908,-24.86091 -15.79908,-42.72969c0,-11.65355 2.05516,-22.40072 6.1655,-32.24149c4.11033,-10.09974 9.89049,-18.77517 17.34046,-26.02626c7.44998,-7.2511 16.31288,-12.94839 26.58871,-17.09188c10.53273,-4.14348 21.96458,-6.21523 34.29558,-6.21523c8.99135,0 16.44133,0.7769 22.34993,2.33071c6.1655,1.55381 11.43187,3.36658 15.79908,5.43832c4.36723,1.81277 8.22066,3.49607 11.5603,5.04987c3.59654,1.55381 7.19308,2.33071 10.78962,2.33071c3.33964,0 5.52325,-0.38845 6.55084,-1.16536c1.28448,-1.03587 2.9543,-3.36658 5.00946,-6.99213l5.39481,0l0,70.30976l-4.62413,0c-1.54138,-9.32284 -4.23878,-18.25723 -8.09222,-26.80317c-3.59654,-8.80491 -8.34911,-16.44446 -14.25772,-22.91865c-5.9086,-6.73316 -13.10168,-12.042 -21.57924,-15.92652c-8.22066,-4.14348 -17.85426,-6.21523 -28.90077,-6.21523c-6.1655,0 -12.97323,0.90639 -20.42321,2.71916c-7.44998,1.55381 -14.38616,4.40245 -20.80856,8.54594c-6.42239,4.14348 -11.8172,9.58181 -16.18443,16.31497c-4.11033,6.73316 -6.1655,15.2791 -6.1655,25.63781c0,8.28697 1.66982,15.40858 5.00946,21.36484c3.33964,5.69729 7.57843,10.61768 12.71634,14.76116c5.39481,3.88452 11.30342,7.2511 17.72581,10.09974c6.67929,2.58968 13.35858,4.92039 20.03787,6.99213l46.62658,14.76116c4.88102,1.55381 11.04652,3.62555 18.49649,6.21523c7.44998,2.58968 14.64306,6.4742 21.57924,11.65355c7.19308,5.17936 13.23013,12.042 18.11114,20.58794c5.13791,8.54594 7.70688,19.42259 7.70688,32.62994c0,12.17149 -2.31206,23.82504 -6.93619,34.96065c-4.36723,10.87665 -10.78962,20.58794 -19.26718,29.13388c-8.47755,8.28697 -18.75338,15.02013 -30.82749,20.19949c-12.0741,4.92039 -25.68957,7.38058 -40.84642,7.38058c-5.39481,0 -10.14738,-0.12948 -14.25772,-0.38845c-4.11033,0 -7.96377,-0.25897 -11.5603,-0.7769c-3.59654,-0.51794 -7.19308,-1.16536 -10.78962,-1.94226c-3.59654,-0.51794 -7.57843,-1.42432 -11.94565,-2.71916c-5.13791,-1.55381 -10.66118,-3.36658 -16.56977,-5.43832c-5.9086,-2.07174 -11.04652,-3.10761 -15.41374,-3.10761c-3.85344,0 -6.55084,0.7769 -8.09222,2.33071c-1.28448,1.55381 -2.44051,3.62555 -3.46809,6.21523l-5.78015,0l0,-83.51712l0.00001,0.00004l0.00002,0zm238.91302,78.07879l36.99299,0l77.06871,-129.74287l-82.07818,-135.9581l-31.98351,0l0,-5.43832l114.83239,0l0,5.43832l-36.99299,0l61.65497,102.1628l61.65497,-102.1628l-36.99299,0l0,-5.43832l80.15147,0l0,5.43832l-36.99299,0l-64.35237,107.60112l95.95055,158.09984l31.98351,0l0,5.43832l-115.60308,0l0,-5.43832l36.99299,0l-75.142,-124.30455l-73.60063,124.30455l36.99299,0l0,5.43832l-80.5368,0l0,-5.43832l0,0.00001z" id="svg_2" stroke="null"/>
  </g>
  <g id="svg_3" stroke="null">
   <path fill="black" d="m201.70596,365.56549c0,-3.4442 -0.1855,-6.51408 -0.55636,-9.20956c-0.37093,-2.77033 -1.03856,-5.12888 -2.00287,-7.07564c-0.89017,-1.94676 -2.18838,-3.4442 -3.89448,-4.49247c-1.63203,-1.04827 -3.74617,-1.57237 -6.34244,-1.57237c-2.74473,0 -5.00719,0.48671 -6.78752,1.46006c-1.78034,0.97334 -3.22685,2.20877 -4.33957,3.70628c-0.81601,1.04827 -1.48364,2.17139 -2.00287,3.36935c-0.44508,1.19796 -0.81601,2.62064 -1.1127,4.26784c-0.29677,1.64721 -0.51932,3.55651 -0.66762,5.7279c-0.07424,2.09646 -0.11127,4.60478 -0.11127,7.52489c0,2.47087 0.18542,5.01657 0.55636,7.6372c0.37085,2.62064 1.07559,5.01657 2.11415,7.18796c1.03848,2.09622 2.48499,3.81859 4.33957,5.16634c1.92865,1.34774 4.45083,2.02162 7.56642,2.02162c3.04135,0 5.45227,-0.59927 7.23261,-1.79699c1.78034,-1.19773 3.11559,-2.9201 4.00576,-5.16634c0.89017,-2.24624 1.44653,-4.94172 1.66906,-8.08645c0.22254,-3.21958 0.33381,-6.77617 0.33381,-10.66961l-0.00001,0l-0.00003,-0.00001zm-45.95486,24.14703l8.56786,0l0,-77.83204l-8.56786,0l0,-1.57237l18.13715,0l0,41.77998l0.22254,0c1.03848,-2.9201 2.81881,-5.39096 5.341,-7.41258c2.52212,-2.02162 5.82312,-3.03241 9.90311,-3.03241c3.18974,0 6.19405,0.71133 9.01294,2.13393c2.81881,1.34774 5.30388,3.1822 7.45514,5.50328c2.15118,2.24624 3.85736,4.90426 5.11846,7.97414c1.26101,3.06988 1.89161,6.28946 1.89161,9.65881c0,3.4442 -0.66762,6.73871 -2.00287,9.88343c-1.26109,3.06988 -3.00431,5.80275 -5.22973,8.19876c-2.22542,2.39626 -4.82176,4.30555 -7.78896,5.7279c-2.89304,1.42235 -5.97159,2.13393 -9.23548,2.13393c-2.52219,0 -4.67338,-0.44925 -6.45371,-1.34774c-1.70618,-0.82389 -3.1527,-1.8347 -4.33957,-3.03241c-1.1127,-1.19773 -1.96584,-2.43316 -2.55923,-3.70628c-0.59347,-1.27314 -1.03856,-2.35855 -1.33525,-3.25703l-0.22254,0l0,9.77112l-17.91461,0l0,-1.57237l0.00001,-0.00003l-0.00001,-0.00002zm102.01009,-27.85331c0.14863,-1.04827 0.22254,-2.02162 0.22254,-2.9201c0,-0.8985 0,-1.83445 0,-2.8078c0,-2.5457 -0.25989,-4.64225 -0.77889,-6.28946c-0.44508,-1.64721 -1.1127,-2.95757 -2.00287,-3.93091c-0.81625,-0.97334 -1.85425,-1.64721 -3.11559,-2.02162c-1.18662,-0.44925 -2.48531,-0.67387 -3.89448,-0.67387c-2.52187,0 -4.59946,0.5241 -6.23116,1.57237c-1.63171,0.97334 -2.9304,2.32108 -3.89448,4.04322c-0.96409,1.72214 -1.70642,3.70628 -2.22542,5.95252c-0.44508,2.24624 -0.74154,4.60478 -0.89017,7.07564l22.81052,0l0.00001,0l-0.00001,0.00001zm-22.9218,1.57237c0,0.74871 -0.03736,1.5349 -0.11127,2.35855c0,0.74871 0,1.72214 0,2.9201c0,2.47087 0.14863,5.05403 0.44508,7.74952c0.29645,2.69549 0.92752,5.12888 1.89161,7.30027c1.0388,2.17163 2.52187,3.96861 4.45083,5.39096c2.00287,1.42235 4.63602,2.13393 7.90023,2.13393c3.26421,0 5.93471,-0.48695 8.0115,-1.46006c2.1515,-0.9731 3.82056,-2.13393 5.00719,-3.48166c1.26133,-1.42235 2.18806,-2.84549 2.78177,-4.26784c0.59371,-1.42258 1.0388,-2.58318 1.33525,-3.48166l1.66906,0.33694c-0.22254,0.82364 -0.66762,2.02162 -1.33525,3.59397c-0.59371,1.49776 -1.59514,3.03241 -3.00431,4.60478c-1.33525,1.49776 -3.18949,2.84549 -5.56354,4.04322c-2.29934,1.12312 -5.30364,1.68468 -9.01294,1.68468c-3.70929,0 -7.15869,-0.59927 -10.34819,-1.79699c-3.11559,-1.19773 -5.82344,-2.9201 -8.12277,-5.16634c-2.29957,-2.24624 -4.07991,-4.90426 -5.341,-7.97414c-1.26101,-3.14472 -1.89161,-6.6264 -1.89161,-10.44499c0,-3.29451 0.63058,-6.47661 1.89161,-9.54649c1.33525,-3.14472 3.11559,-5.91507 5.341,-8.31108c2.29934,-2.39601 4.96983,-4.30532 8.0115,-5.7279c3.04167,-1.49751 6.30508,-2.24624 9.79184,-2.24624c2.07679,0 4.30221,0.37439 6.67625,1.12312c2.37404,0.74871 4.5621,1.98414 6.56497,3.70628c2.07679,1.64721 3.78321,3.85607 5.11846,6.6264c1.40917,2.77033 2.11415,6.21461 2.11415,10.33268l-34.27142,0l0.00003,0l-0.00003,-0.00001zm73.10495,0.33694l-0.22254,0c-0.14863,0.97334 -1.37261,1.94676 -3.67193,2.9201l-8.34531,3.36935c-2.37404,0.97334 -4.19094,2.35855 -5.45227,4.15553c-1.26133,1.72214 -1.89161,3.89345 -1.89161,6.51408c0,1.12312 0.11127,2.2837 0.33381,3.48166c0.22254,1.19773 0.63028,2.28395 1.22398,3.25703c0.59371,0.8985 1.40917,1.64698 2.44796,2.24624c1.1127,0.59927 2.52187,0.8985 4.22829,0.8985c2.44796,0 4.41348,-0.52385 5.89735,-1.57237c1.55779,-1.04851 2.70786,-2.35855 3.4494,-3.93091c0.81625,-1.57237 1.33525,-3.25703 1.55779,-5.05403c0.29645,-1.87183 0.44508,-3.55651 0.44508,-5.05403l0,-11.23117l0,0.00002zm19.4724,26.28094c-0.96409,0.74848 -2.11415,1.38545 -3.4494,1.9093c-1.33525,0.59927 -2.96696,0.8985 -4.89591,0.8985c-3.56067,0 -6.15725,-0.74848 -7.78896,-2.24624c-1.55779,-1.57237 -2.63315,-3.74399 -3.22685,-6.51408l-0.22254,0c-0.29645,0.67387 -0.70498,1.53466 -1.22398,2.58318c-0.519,0.9731 -1.33525,1.94701 -2.44796,2.9201c-1.0388,0.8985 -2.44796,1.64698 -4.22829,2.24624c-1.78034,0.67387 -4.0431,1.01081 -6.78752,1.01081c-3.11559,0 -5.6009,-0.37464 -7.45514,-1.12312c-1.85425,-0.67387 -3.30077,-1.53466 -4.33957,-2.58318c-1.0388,-1.04851 -1.74298,-2.20854 -2.11415,-3.48166c-0.29645,-1.34774 -0.44508,-2.58318 -0.44508,-3.70628c0,-2.62064 0.519,-4.71709 1.55779,-6.28946c1.0388,-1.57237 2.37404,-2.8078 4.00576,-3.70628c1.70642,-0.97334 3.56067,-1.75952 5.56354,-2.35855c2.07679,-0.59902 4.15437,-1.23543 6.23116,-1.9093c2.44796,-0.82364 4.45083,-1.5349 6.00863,-2.13393c1.63171,-0.59902 2.89304,-1.31027 3.78321,-2.13393c0.89017,-0.8985 1.48387,-1.98414 1.78034,-3.25703c0.37117,-1.34774 0.55636,-3.14472 0.55636,-5.39096c0,-1.79699 -0.11127,-3.40682 -0.33381,-4.8294c-0.22254,-1.42258 -0.63028,-2.62064 -1.22398,-3.59397c-0.59371,-1.04827 -1.44653,-1.83445 -2.55923,-2.35855c-1.1127,-0.5241 -2.59659,-0.78618 -4.45083,-0.78618c-2.44796,0 -4.48819,0.44925 -6.1199,1.34774c-1.55779,0.82364 -2.33668,2.20877 -2.33668,4.15553c0,1.27289 0.11127,2.5457 0.33381,3.81859c0.22254,1.19796 0.33381,2.09646 0.33381,2.69549c0,1.04827 -0.37117,1.94676 -1.1127,2.69549c-0.74154,0.67387 -1.81769,1.01081 -3.22685,1.01081c-2.44796,0 -3.9684,-0.44925 -4.5621,-1.34774c-0.59371,-0.8985 -0.89017,-2.05908 -0.89017,-3.48166c0,-1.64721 0.37117,-3.21958 1.1127,-4.71709c0.74154,-1.49751 1.81769,-2.8078 3.22685,-3.93091c1.48387,-1.19796 3.30077,-2.13393 5.45227,-2.8078c2.22542,-0.67387 4.74729,-1.01081 7.56642,-1.01081c3.41204,0 6.26852,0.44925 8.56786,1.34774c2.29934,0.82364 4.15437,1.98414 5.56354,3.48166c1.40917,1.42258 2.4106,3.06988 3.00431,4.94172c0.59371,1.79699 0.89017,3.70628 0.89017,5.7279l0,27.96563c0,2.17163 0.33381,3.63168 1.00144,4.38015c0.66762,0.74848 1.63171,1.12312 2.89304,1.12312c0.81625,0 1.66906,-0.15002 2.55923,-0.44925c0.89017,-0.29923 1.74298,-0.74848 2.55923,-1.34774l0.89017,1.23543l-0.00003,0l-0.00001,-0.00003zm63.6962,1.23543l-17.91461,0l0,-11.34349l-0.22254,0c-0.66762,1.49751 -1.48309,3.03241 -2.44796,4.60478c-0.89017,1.49776 -2.03943,2.88241 -3.4494,4.15553c-1.33525,1.19773 -2.9296,2.17163 -4.78465,2.9201c-1.78034,0.82389 -3.89448,1.23543 -6.34244,1.23543c-2.96696,0 -5.37756,-0.33694 -7.23261,-1.01081c-1.85425,-0.67387 -3.30077,-1.38545 -4.33957,-2.13393c-0.519,-0.37464 -1.1127,-0.82389 -1.78034,-1.34774c-0.59292,-0.59927 -1.14927,-1.38545 -1.66906,-2.35855c-0.519,-0.9731 -0.96409,-2.20854 -1.33525,-3.70628c-0.37037,-1.57237 -0.55636,-3.48166 -0.55636,-5.7279l0,-31.89653l-8.56786,0l0,-1.57237l18.13715,0l0,34.47971c0,1.94676 0.11127,3.74376 0.33381,5.39096c0.29725,1.64698 0.81625,3.10702 1.55779,4.38015c0.74233,1.19773 1.70642,2.17163 2.89304,2.9201c1.18742,0.67387 2.74521,1.01081 4.67338,1.01081c1.6325,0 3.30156,-0.48695 5.00719,-1.46006c1.78034,-0.9731 3.37548,-2.35855 4.78465,-4.15553c1.48387,-1.79699 2.70786,-3.93091 3.67193,-6.40177c0.96488,-2.5457 1.44653,-5.39096 1.44653,-8.53569l0,-26.05632l-8.45658,0l0,-1.57237l18.02587,0l0,46.60938l8.56786,0l0,1.57237l0.00002,0.00002l0.00001,0zm4.53746,-48.18173l8.56786,0l0,-14.48821c0.59292,0.22462 1.14927,0.41179 1.66906,0.56156c0.519,0.14977 1.40917,0.22462 2.6705,0.22462c1.1127,0 2.07679,-0.11231 2.89304,-0.33694c0.81546,-0.29948 1.59435,-0.74871 2.33668,-1.34774l0,15.38671l15.80046,0l0,1.57237l-15.80046,0l0,36.72593c0,2.09622 0.18519,3.81859 0.55636,5.16634c0.44508,1.27314 1.00144,2.28395 1.66906,3.03241c0.66762,0.67387 1.37181,1.12312 2.11415,1.34774c0.81546,0.22462 1.59435,0.33694 2.33668,0.33694c2.59579,0 4.67338,-0.9362 6.23116,-2.8078c1.63171,-1.94701 2.6705,-4.15553 3.11559,-6.6264l1.55779,0.56156c-0.22254,0.9731 -0.55636,2.05932 -1.00144,3.25703c-0.44508,1.19773 -1.15006,2.35855 -2.11415,3.48166c-0.89017,1.04851 -2.07759,1.9093 -3.56067,2.58318c-1.48387,0.74848 -3.33812,1.12312 -5.56354,1.12312c-5.56354,0 -9.45803,-1.08542 -11.68343,-3.25703c-2.1515,-2.17163 -3.22685,-5.24095 -3.22685,-9.20956l0,-35.71514l-8.56786,0l0,-1.57237l0.00001,0.00002zm34.60603,0l27.26136,0l0,1.57237l-9.34675,0l14.35394,35.26589l15.02156,-35.26589l-9.23548,0l0,-1.57237l17.02444,0l0,1.57237l-6.00863,0l-18.35969,43.35233c-1.40996,3.21933 -2.74521,6.43948 -4.00576,9.65881c-1.26133,3.29474 -2.52267,6.58869 -3.78321,9.88343c-1.0388,2.69549 -2.07759,5.05403 -3.11559,7.07564c-1.0388,2.02162 -2.1515,3.66858 -3.33812,4.94172c-1.1127,1.27314 -2.33668,2.20854 -3.67193,2.8078c-1.33525,0.67387 -2.89304,1.01081 -4.67338,1.01081c-2.1515,0 -3.89448,-0.33694 -5.22973,-1.01081c-1.26133,-0.67387 -2.26278,-1.46006 -3.00431,-2.35855c-0.74233,-0.8985 -1.22398,-1.8347 -1.44653,-2.8078c-0.22254,-0.9731 -0.33381,-1.79699 -0.33381,-2.47087c0,-1.8716 0.519,-3.29474 1.55779,-4.26784c1.038,-0.8985 2.29934,-1.34774 3.78321,-1.34774c0.519,0 1.07535,0.03771 1.66906,0.11231c0.59292,0.15002 1.14927,0.37464 1.66906,0.67387c0.519,0.29923 0.96409,0.71158 1.33525,1.23543c0.37037,0.52385 0.55636,1.16083 0.55636,1.9093c0,1.04851 -0.33381,2.02162 -1.00144,2.9201c-0.59371,0.9731 -0.89017,2.02162 -0.89017,3.14472c0,0.9731 0.2591,1.61007 0.77889,1.9093c0.519,0.29923 1.22398,0.44925 2.11415,0.44925c1.18662,0 2.26198,-0.29923 3.22685,-0.8985c1.038,-0.52385 2.03943,-1.42235 3.00431,-2.69549c0.96409,-1.27314 1.92816,-2.9578 2.89304,-5.05403c0.96409,-2.02162 2.03943,-4.53017 3.22685,-7.52489l4.89591,-12.57892l-19.24985,-48.06942l-7.67769,0l0,-1.57237l0.00003,0.00003l0.00001,0.00001zm84.65089,0l26.81628,0l0,1.57237l-9.23548,0l12.46234,35.04127l11.57217,-27.741l-2.78177,-7.30027l-4.67338,0l0,-1.57237l22.1429,0l0,1.57237l-7.45514,0l12.90741,34.81665l13.90885,-34.81665l-10.45946,0l0,-1.57237l18.13715,0l0,1.57237l-5.89735,0l-19.91748,50.31566l-15.13283,-40.76917l-16.91317,40.76917l-17.91461,-50.31566l-7.56642,0l0,-1.57237l-0.00002,0l0.00001,0zm93.26802,-26.16863c0,-1.64721 0.55636,-3.03241 1.66906,-4.15553c1.18742,-1.19796 2.59659,-1.79699 4.22829,-1.79699c1.6325,0 3.00431,0.59902 4.11702,1.79699c1.18742,1.12312 1.78034,2.50832 1.78034,4.15553c0,1.64721 -0.59292,3.06988 -1.78034,4.26784c-1.1127,1.12312 -2.48452,1.68468 -4.11702,1.68468c-1.63171,0 -3.04087,-0.56156 -4.22829,-1.68468c-1.1127,-1.19796 -1.66906,-2.62064 -1.66906,-4.26784zm-7.23261,72.77801l8.56786,0l0,-45.03701l-8.56786,0l0,-1.57237l18.13715,0l0,46.60938l8.56786,0l0,1.57237l-26.70501,0l0,-1.57237zm31.70107,-46.60938l8.56786,0l0,-14.48821c0.59371,0.22462 1.15006,0.41179 1.66906,0.56156c0.5198,0.14977 1.40996,0.22462 2.6705,0.22462c1.1127,0 2.07759,-0.11231 2.89304,-0.33694c0.81625,-0.29948 1.59514,-0.74871 2.33668,-1.34774l0,15.38671l15.80046,0l0,1.57237l-15.80046,0l0,36.72593c0,2.09622 0.18599,3.81859 0.55636,5.16634c0.44508,1.27314 1.00144,2.28395 1.66906,3.03241c0.66762,0.67387 1.37261,1.12312 2.11415,1.34774c0.81625,0.22462 1.59514,0.33694 2.33668,0.33694c2.59659,0 4.67338,-0.9362 6.23116,-2.8078c1.6325,-1.94701 2.6705,-4.15553 3.11559,-6.6264l1.55779,0.56156c-0.22254,0.9731 -0.55636,2.05932 -1.00144,3.25703c-0.44508,1.19773 -1.14927,2.35855 -2.11415,3.48166c-0.89017,1.04851 -2.07679,1.9093 -3.56067,2.58318c-1.48309,0.74848 -3.33812,1.12312 -5.56354,1.12312c-5.56354,0 -9.45803,-1.08542 -11.68343,-3.25703c-2.15071,-2.17163 -3.22685,-5.24095 -3.22685,-9.20956l0,-35.71514l-8.56786,0l0,-1.57237l0.00001,0.00002zm37.94415,46.60938l8.56786,0l0,-77.83204l-8.56786,0l0,-1.57237l18.13715,0l0,44.13852l0.22254,0c0.37117,-0.97334 1.00144,-2.17139 1.89161,-3.59397c0.89017,-1.49751 2.07759,-2.88264 3.56067,-4.15553c1.55779,-1.34774 3.41284,-2.47087 5.56354,-3.36935c2.22542,-0.97334 4.85935,-1.46006 7.90023,-1.46006c4.89591,0 8.86511,1.19796 11.90598,3.59397c3.11559,2.39601 4.67338,6.21461 4.67338,11.4558l0,32.79503l8.56786,0l0,1.57237l-26.70501,0l0,-1.57237l8.56786,0l0,-36.2767c0,-2.9201 -0.70418,-5.31611 -2.11415,-7.18796c-1.33525,-1.87183 -3.4494,-2.8078 -6.34244,-2.8078c-2.37324,0 -4.63602,0.5241 -6.78752,1.57237c-2.15071,1.04827 -4.04231,2.50832 -5.67482,4.38015c-1.63171,1.87183 -2.9296,4.08069 -3.89448,6.6264c-0.89017,2.5457 -1.33525,5.31611 -1.33525,8.31108l0,25.38245l8.56786,0l0,1.57237l-26.70501,0l0,-1.57237l0,0.00002l0,-0.00001zm129.92541,-25.94401l-0.22254,0c-0.14863,0.97334 -1.37261,1.94676 -3.67193,2.9201l-8.34531,3.36935c-2.37404,0.97334 -4.19094,2.35855 -5.45227,4.15553c-1.26133,1.72214 -1.89161,3.89345 -1.89161,6.51408c0,1.12312 0.11127,2.2837 0.33381,3.48166c0.22254,1.19773 0.63028,2.28395 1.22398,3.25703c0.59371,0.8985 1.40917,1.64698 2.44796,2.24624c1.1127,0.59927 2.52187,0.8985 4.22829,0.8985c2.44796,0 4.41348,-0.52385 5.89735,-1.57237c1.55779,-1.04851 2.70786,-2.35855 3.4494,-3.93091c0.81625,-1.57237 1.33525,-3.25703 1.55779,-5.05403c0.29645,-1.87183 0.44508,-3.55651 0.44508,-5.05403l0,-11.23117l0,0.00002zm19.4724,26.28094c-0.96409,0.74848 -2.11415,1.38545 -3.4494,1.9093c-1.33525,0.59927 -2.96696,0.8985 -4.89591,0.8985c-3.56067,0 -6.15725,-0.74848 -7.78896,-2.24624c-1.55779,-1.57237 -2.63315,-3.74399 -3.22685,-6.51408l-0.22254,0c-0.29645,0.67387 -0.70498,1.53466 -1.22398,2.58318c-0.519,0.9731 -1.33525,1.94701 -2.44796,2.9201c-1.0388,0.8985 -2.44796,1.64698 -4.22829,2.24624c-1.78034,0.67387 -4.0431,1.01081 -6.78752,1.01081c-3.11559,0 -5.6009,-0.37464 -7.45514,-1.12312c-1.85425,-0.67387 -3.30077,-1.53466 -4.33957,-2.58318c-1.0388,-1.04851 -1.74298,-2.20854 -2.11415,-3.48166c-0.29645,-1.34774 -0.44508,-2.58318 -0.44508,-3.70628c0,-2.62064 0.519,-4.71709 1.55779,-6.28946c1.0388,-1.57237 2.37404,-2.8078 4.00576,-3.70628c1.70642,-0.97334 3.56067,-1.75952 5.56354,-2.35855c2.07679,-0.59902 4.15437,-1.23543 6.23116,-1.9093c2.44796,-0.82364 4.45083,-1.5349 6.00863,-2.13393c1.63171,-0.59902 2.89304,-1.31027 3.78321,-2.13393c0.89017,-0.8985 1.48387,-1.98414 1.78034,-3.25703c0.37117,-1.34774 0.55636,-3.14472 0.55636,-5.39096c0,-1.79699 -0.11127,-3.40682 -0.33381,-4.8294c-0.22254,-1.42258 -0.63028,-2.62064 -1.22398,-3.59397c-0.59371,-1.04827 -1.44653,-1.83445 -2.55923,-2.35855c-1.1127,-0.5241 -2.59659,-0.78618 -4.45083,-0.78618c-2.44796,0 -4.48819,0.44925 -6.1199,1.34774c-1.55779,0.82364 -2.33668,2.20877 -2.33668,4.15553c0,1.27289 0.11127,2.5457 0.33381,3.81859c0.22254,1.19796 0.33381,2.09646 0.33381,2.69549c0,1.04827 -0.37117,1.94676 -1.1127,2.69549c-0.74154,0.67387 -1.81769,1.01081 -3.22685,1.01081c-2.44796,0 -3.9684,-0.44925 -4.5621,-1.34774c-0.59371,-0.8985 -0.89017,-2.05908 -0.89017,-3.48166c0,-1.64721 0.37117,-3.21958 1.1127,-4.71709c0.74154,-1.49751 1.81769,-2.8078 3.22685,-3.93091c1.48387,-1.19796 3.30077,-2.13393 5.45227,-2.8078c2.22542,-0.67387 4.74729,-1.01081 7.56642,-1.01081c3.41204,0 6.26852,0.44925 8.56786,1.34774c2.29934,0.82364 4.15437,1.98414 5.56354,3.48166c1.40917,1.42258 2.4106,3.06988 3.00431,4.94172c0.59371,1.79699 0.89017,3.70628 0.89017,5.7279l0,27.96563c0,2.17163 0.33381,3.63168 1.00144,4.38015c0.66762,0.74848 1.63171,1.12312 2.89304,1.12312c0.81625,0 1.66906,-0.15002 2.55923,-0.44925c0.89017,-0.29923 1.74298,-0.74848 2.55923,-1.34774l0.89017,1.23543l-0.00003,0l-0.00001,-0.00003zm80.4226,-24.48397c0,-3.4442 -0.18519,-6.51408 -0.55636,-9.20956c-0.37037,-2.77033 -1.038,-5.12888 -2.00287,-7.07564c-0.89017,-1.94676 -2.18806,-3.4442 -3.89448,-4.49247c-1.63171,-1.04827 -3.74585,-1.57237 -6.34244,-1.57237c-2.74442,0 -5.00719,0.48671 -6.78752,1.46006c-1.78034,0.97334 -3.22685,2.20877 -4.33957,3.70628c-0.81546,1.04827 -1.48309,2.17139 -2.00287,3.36935c-0.44508,1.19796 -0.81546,2.62064 -1.1127,4.26784c-0.29645,1.64721 -0.519,3.55651 -0.66762,5.7279c-0.07392,2.09646 -0.11127,4.60478 -0.11127,7.52489c0,2.47087 0.18599,5.01657 0.55636,7.6372c0.37117,2.62064 1.07614,5.01657 2.11415,7.18796c1.0388,2.09622 2.48531,3.81859 4.33957,5.16634c1.92896,1.34774 4.45083,2.02162 7.56642,2.02162c3.04167,0 5.45227,-0.59927 7.23261,-1.79699c1.78034,-1.19773 3.11559,-2.9201 4.00576,-5.16634c0.89017,-2.24624 1.44653,-4.94172 1.66906,-8.08645c0.22254,-3.21958 0.33381,-6.77617 0.33381,-10.66961l-0.00001,0l-0.00003,-0.00001zm-45.95486,55.59431l8.56786,0l0,-76.4843l-8.56786,0l0,-1.57237l17.91461,0l0,9.43418l0.22254,0c1.1127,-3.14472 2.9304,-5.7279 5.45227,-7.74952c2.59659,-2.09646 5.93471,-3.14472 10.01437,-3.14472c3.19029,0 6.1946,0.71133 9.01294,2.13393c2.81912,1.34774 5.30444,3.1822 7.45514,5.50328c2.1515,2.24624 3.85792,4.90426 5.11846,7.97414c1.26133,3.06988 1.89161,6.28946 1.89161,9.65881c0,3.4442 -0.66762,6.73871 -2.00287,9.88343c-1.26054,3.06988 -3.00431,5.80275 -5.22973,8.19876c-2.22542,2.39626 -4.82121,4.30555 -7.78896,5.7279c-2.89304,1.42235 -5.97127,2.13393 -9.23548,2.13393c-2.52187,0 -4.67338,-0.44925 -6.45371,-1.34774c-1.70562,-0.82389 -3.11559,-1.79699 -4.22829,-2.9201c-1.1127,-1.19773 -1.96552,-2.39626 -2.55923,-3.59397c-0.59292,-1.27314 -1.00144,-2.2837 -1.22398,-3.03241l-0.22254,0l0,39.1968l8.56786,0l0,1.57237l-26.70501,0l0,-1.57237l0,-0.00003zm126.15651,-29.87493l-17.91461,0l0,-11.34349l-0.22254,0c-0.66762,1.49751 -1.48626,3.03241 -2.44796,4.60478c-0.89017,1.49776 -2.04262,2.88241 -3.4494,4.15553c-1.33525,1.19773 -2.93278,2.17163 -4.78465,2.9201c-1.78034,0.82389 -3.89448,1.23543 -6.34244,1.23543c-2.96775,0 -5.37835,-0.33694 -7.23261,-1.01081c-1.85505,-0.67387 -3.30156,-1.38545 -4.33957,-2.13393c-0.5198,-0.37464 -1.1127,-0.82389 -1.78034,-1.34774c-0.59371,-0.59927 -1.15006,-1.38545 -1.66906,-2.35855c-0.5198,-0.9731 -0.96488,-2.20854 -1.33525,-3.70628c-0.37117,-1.57237 -0.55636,-3.48166 -0.55636,-5.7279l0,-31.89653l-8.56786,0l0,-1.57237l18.13715,0l0,34.47971c0,1.94676 0.11127,3.74376 0.33381,5.39096c0.29645,1.64698 0.81546,3.10702 1.55779,4.38015c0.74154,1.19773 1.70562,2.17163 2.89304,2.9201c1.18662,0.67387 2.74442,1.01081 4.67338,1.01081c1.62932,0 3.29838,-0.48695 5.00719,-1.46006c1.78034,-0.9731 3.37787,-2.35855 4.78465,-4.15553c1.48626,-1.79699 2.71024,-3.93091 3.67193,-6.40177c0.9617,-2.5457 1.44653,-5.39096 1.44653,-8.53569l0,-26.05632l-8.45658,0l0,-1.57237l18.02587,0l0,46.60938l8.56786,0l0,1.57237l0.00002,0.00002l0.00001,0zm5.65097,-1.57237l8.56786,0l0,-45.03701l-8.56786,0l0,-1.57237l17.91461,0l0,11.34349l0.22254,0c0.29408,-1.12312 0.77889,-2.39601 1.44653,-3.81859c0.66762,-1.42258 1.58959,-2.77033 2.78177,-4.04322c1.18424,-1.34774 2.59102,-2.47087 4.22829,-3.36935c1.70085,-0.8985 3.74347,-1.34774 6.1199,-1.34774c1.70085,0 3.18712,0.29948 4.45083,0.8985c1.25577,0.5241 2.29695,1.23543 3.11559,2.13393c0.81069,0.82364 1.40678,1.79699 1.78034,2.9201c0.36561,1.12312 0.55636,2.24624 0.55636,3.36935c0,2.47087 -0.55636,4.11807 -1.66906,4.94172c-1.1127,0.82364 -2.41617,1.23543 -3.89448,1.23543c-3.26659,0 -4.89591,-1.04827 -4.89591,-3.14472c0,-0.67387 0.07153,-1.19796 0.22254,-1.57237c0.14306,-0.44925 0.29408,-0.86102 0.44508,-1.23543c0.22254,-0.44925 0.40534,-0.93595 0.55636,-1.46006c0.14306,-0.5241 0.22254,-1.27289 0.22254,-2.24624c0,-2.39601 -1.30345,-3.59397 -3.89448,-3.59397c-1.19219,0 -2.44796,0.44925 -3.78321,1.34774c-1.33525,0.8985 -2.59897,2.20877 -3.78321,3.93091c-1.1127,1.72214 -2.08236,3.81859 -2.89304,6.28946c-0.74711,2.39601 -1.1127,5.16634 -1.1127,8.31108l0,25.71938l9.68056,0l0,1.57237l-27.81771,0l0,-1.57237l-0.00001,0l-0.00003,-0.00002zm91.37721,-24.14703c0,-3.4442 -0.1828,-6.51408 -0.55636,-9.20956c-0.37355,-2.77033 -1.04117,-5.12888 -2.00287,-7.07564c-0.89017,-1.94676 -2.18568,-3.4442 -3.89448,-4.49247c-1.62932,-1.04827 -3.74347,-1.57237 -6.34244,-1.57237c-2.74203,0 -5.00719,0.48671 -6.78752,1.46006c-1.78034,0.97334 -3.22685,2.20877 -4.33957,3.70628c-0.81864,1.04827 -1.48626,2.17139 -2.00287,3.36935c-0.44508,1.19796 -0.81864,2.62064 -1.1127,4.26784c-0.29408,1.64721 -0.51661,3.55651 -0.66762,5.7279c-0.07153,2.09646 -0.11127,4.60478 -0.11127,7.52489c0,2.47087 0.1828,5.01657 0.55636,7.6372c0.37355,2.62064 1.07297,5.01657 2.11415,7.18796c1.04117,2.09622 2.4877,3.81859 4.33957,5.16634c1.93134,1.34774 4.45083,2.02162 7.56642,2.02162c3.04406,0 5.45227,-0.59927 7.23261,-1.79699c1.78034,-1.19773 3.11559,-2.9201 4.00576,-5.16634c0.89017,-2.24624 1.44653,-4.94172 1.66906,-8.08645c0.22254,-3.21958 0.33381,-6.77617 0.33381,-10.66961l-0.00001,0l-0.00003,-0.00001zm-45.95486,55.59431l8.56786,0l0,-76.4843l-8.56786,0l0,-1.57237l17.91461,0l0,9.43418l0.22254,0c1.1127,-3.14472 2.93278,-5.7279 5.45227,-7.74952c2.59897,-2.09646 5.9371,-3.14472 10.01437,-3.14472c3.18712,0 6.19143,0.71133 9.01294,2.13393c2.82151,1.34774 5.30126,3.1822 7.45514,5.50328c2.15389,2.24624 3.85474,4.90426 5.11846,7.97414c1.26372,3.06988 1.89161,6.28946 1.89161,9.65881c0,3.4442 -0.66762,6.73871 -2.00287,9.88343c-1.26372,3.06988 -3.00431,5.80275 -5.22973,8.19876c-2.22542,2.39626 -4.82438,4.30555 -7.78896,5.7279c-2.89304,1.42235 -5.96889,2.13393 -9.23548,2.13393c-2.51949,0 -4.67338,-0.44925 -6.45371,-1.34774c-1.70881,-0.82389 -3.11559,-1.79699 -4.22829,-2.9201c-1.1127,-1.19773 -1.96314,-2.39626 -2.55923,-3.59397c-0.59609,-1.27314 -1.00144,-2.2837 -1.22398,-3.03241l-0.22254,0l0,39.1968l8.56786,0l0,1.57237l-26.70501,0l0,-1.57237l0,-0.00003zm78.97846,-53.90963c0,5.31611 0.40534,9.54649 1.22398,12.69123c0.81069,3.14472 1.89161,5.57788 3.22685,7.30027c1.33525,1.64698 2.89304,2.73318 4.67338,3.25703c1.78034,0.52385 3.67193,0.78618 5.67482,0.78618c2.00287,0 3.89448,-0.26233 5.67482,-0.78618c1.78034,-0.52385 3.33812,-1.61007 4.67338,-3.25703c1.33525,-1.72239 2.40822,-4.15553 3.22685,-7.30027c0.81069,-3.14472 1.22398,-7.37511 1.22398,-12.69123c0,-4.49247 -0.30202,-8.23622 -0.89017,-11.23117c-0.59609,-3.06988 -1.526,-5.54073 -2.78177,-7.41258c-1.19219,-1.94676 -2.71024,-3.33189 -4.5621,-4.15553c-1.85981,-0.82364 -4.04549,-1.23543 -6.56497,-1.23543c-2.52744,0 -4.71312,0.41179 -6.56497,1.23543c-1.85981,0.82364 -3.4176,2.20877 -4.67338,4.15553c-1.19219,1.87183 -2.08236,4.3427 -2.6705,7.41258c-0.59609,2.99495 -0.89017,6.73871 -0.89017,11.23117l-0.00001,0l-0.00002,0zm-11.12709,0c0,-3.66882 0.77889,-7.07564 2.33668,-10.22037c1.62932,-3.14472 3.67193,-5.84021 6.1199,-8.08645c2.51949,-2.32108 5.30126,-4.11807 8.34531,-5.39096c3.11559,-1.27289 6.15169,-1.9093 9.1242,-1.9093c2.96457,0 5.96889,0.6364 9.01294,1.9093c3.11559,1.27289 5.89735,3.06988 8.34531,5.39096c2.51949,2.24624 4.5621,4.94172 6.1199,8.08645c1.62932,3.14472 2.44796,6.55154 2.44796,10.22037c0,3.51913 -0.74711,6.85102 -2.22542,9.99574c-1.48626,3.06988 -3.4494,5.76536 -5.89735,8.08645c-2.37643,2.32085 -5.11846,4.15553 -8.23405,5.50328c-3.11559,1.34774 -6.31065,2.02162 -9.56929,2.02162c-3.26659,0 -6.45371,-0.67387 -9.56929,-2.02162c-3.11559,-1.34774 -5.89735,-3.18243 -8.34531,-5.50328c-2.37643,-2.32108 -4.30777,-5.01657 -5.78608,-8.08645c-1.48626,-3.14472 -2.22542,-6.47661 -2.22542,-9.99574l0.00001,0zm63.05083,8.31108l1.22398,0c0.51661,1.79699 1.18424,3.63144 2.00287,5.50328c0.81864,1.79699 1.89161,3.48166 3.22685,5.05403c1.40678,1.49776 3.11559,2.73318 5.11846,3.70628c2.00287,0.9731 4.4111,1.46006 7.23261,1.46006c2.37643,0 4.49057,-0.71158 6.34244,-2.13393c1.85187,-1.49776 2.78177,-3.8932 2.78177,-7.18796c0,-2.84526 -0.73915,-4.8294 -2.22542,-5.95252c-1.40678,-1.19796 -3.07584,-2.13393 -5.00719,-2.8078l-8.67912,-3.03241c-1.1127,-0.37439 -2.33668,-0.82364 -3.67193,-1.34774c-1.26372,-0.59902 -2.44796,-1.3852 -3.56067,-2.35855c-1.1127,-1.04827 -2.04262,-2.35855 -2.78177,-3.93091c-0.66762,-1.57237 -1.00144,-3.59397 -1.00144,-6.06484c0,-2.09646 0.40534,-4.04322 1.22398,-5.84021c0.81864,-1.79699 1.93134,-3.36935 3.33812,-4.71709c1.40678,-1.34774 3.07584,-2.39601 5.00719,-3.14472c2.00287,-0.74871 4.15676,-1.12312 6.45371,-1.12312c1.62932,0 2.93278,0.14977 3.89448,0.44925c1.04117,0.22462 1.93134,0.48671 2.6705,0.78618c0.73915,0.22462 1.40678,0.48671 2.00287,0.78618c0.59609,0.22462 1.29551,0.33694 2.11415,0.33694c0.81864,0 1.40678,-0.29948 1.78034,-0.8985l1.22398,0l0,12.80354l-1.22398,0c-0.51661,-1.64721 -1.1127,-3.21958 -1.78034,-4.71709c-0.66762,-1.57237 -1.48626,-2.95757 -2.44796,-4.15553c-0.89017,-1.19796 -2.04262,-2.13393 -3.4494,-2.8078c-1.33525,-0.67387 -2.93278,-1.01081 -4.78465,-1.01081c-3.56067,0 -6.34244,0.82364 -8.34531,2.47087c-1.93134,1.57237 -2.89304,3.70628 -2.89304,6.40177c0,2.39601 0.81864,4.23038 2.44796,5.50328c1.70881,1.19796 4.18855,2.32108 7.45514,3.36935l8.12277,2.69549c3.48914,1.19796 6.34244,2.84526 8.56786,4.94172c2.22542,2.09646 3.33812,4.86688 3.33812,8.31108c0,2.02162 -0.40534,4.00576 -1.22398,5.95252c-0.73915,1.94701 -1.89161,3.66858 -3.4494,5.16634c-1.48626,1.42235 -3.33812,2.58318 -5.56354,3.48166c-2.15389,0.8985 -4.63363,1.34774 -7.45514,1.34774c-1.62932,0 -3.15532,-0.18692 -4.5621,-0.56156c-1.33525,-0.29923 -2.59897,-0.63617 -3.78321,-1.01081c-1.1127,-0.37464 -2.15389,-0.71158 -3.11559,-1.01081c-0.9617,-0.37464 -1.85187,-0.56156 -2.6705,-0.56156c-0.81864,0 -1.40678,0.18692 -1.78034,0.56156c-0.37355,0.29923 -0.66762,0.63617 -0.89017,1.01081l-1.22398,0l0,-15.72364l0.00001,0l0.00001,-0.00002zm80.31371,-13.70204c0.15101,-1.04827 0.22254,-2.02162 0.22254,-2.9201c0,-0.8985 0,-1.83445 0,-2.8078c0,-2.5457 -0.26228,-4.64225 -0.77889,-6.28946c-0.44508,-1.64721 -1.1127,-2.95757 -2.00287,-3.93091c-0.81864,-0.97334 -1.85187,-1.64721 -3.11559,-2.02162c-1.18424,-0.44925 -2.4877,-0.67387 -3.89448,-0.67387c-2.51949,0 -4.60185,0.5241 -6.23116,1.57237c-1.62932,0.97334 -2.93278,2.32108 -3.89448,4.04322c-0.9617,1.72214 -1.70881,3.70628 -2.22542,5.95252c-0.44508,2.24624 -0.73915,4.60478 -0.89017,7.07564l22.81052,0l0.00001,0l-0.00001,0.00001zm-22.9218,1.57237c0,0.74871 -0.03974,1.5349 -0.11127,2.35855c0,0.74871 0,1.72214 0,2.9201c0,2.47087 0.15101,5.05403 0.44508,7.74952c0.29408,2.69549 0.92991,5.12888 1.89161,7.30027c1.04117,2.17163 2.51949,3.96861 4.45083,5.39096c2.00287,1.42235 4.63363,2.13393 7.90023,2.13393c3.26659,0 5.9371,-0.48695 8.0115,-1.46006c2.15389,-0.9731 3.82295,-2.13393 5.00719,-3.48166c1.26372,-1.42235 2.18568,-2.84549 2.78177,-4.26784c0.59609,-1.42258 1.04117,-2.58318 1.33525,-3.48166l1.66906,0.33694c-0.22254,0.82364 -0.66762,2.02162 -1.33525,3.59397c-0.59609,1.49776 -1.59753,3.03241 -3.00431,4.60478c-1.33525,1.49776 -3.18712,2.84549 -5.56354,4.04322c-2.29695,1.12312 -5.30126,1.68468 -9.01294,1.68468c-3.71168,0 -7.16108,-0.59927 -10.34819,-1.79699c-3.11559,-1.19773 -5.82582,-2.9201 -8.12277,-5.16634c-2.29695,-2.24624 -4.07729,-4.90426 -5.341,-7.97414c-1.26372,-3.14472 -1.89161,-6.6264 -1.89161,-10.44499c0,-3.29451 0.62789,-6.47661 1.89161,-9.54649c1.33525,-3.14472 3.11559,-5.91507 5.341,-8.31108c2.29695,-2.39601 4.96744,-4.30532 8.0115,-5.7279c3.04406,-1.49751 6.3027,-2.24624 9.79184,-2.24624c2.0744,0 4.29982,0.37439 6.67625,1.12312c2.37643,0.74871 4.5621,1.98414 6.56497,3.70628c2.0744,1.64721 3.78321,3.85607 5.11846,6.6264c1.40678,2.77033 2.11415,6.21461 2.11415,10.33268l-34.27142,0l0.00003,0l-0.00003,-0.00001z" id="svg_4" stroke="null"/>
  </g>
 </g>

</svg>