<svg width="176" height="37" viewBox="0 0 176 37" fill="none" xmlns="http://www.w3.org/2000/svg">
<path d="M10.6461 35.328C11.1901 35.392 11.8141 35.44 12.5181 35.472C13.2541 35.504 14.0541 35.52 14.9181 35.52C16.0061 35.52 17.0781 35.472 18.1341 35.376C19.2221 35.248 20.2461 35.008 21.2061 34.656C22.1981 34.272 23.1101 33.744 23.9421 33.072C24.8061 32.368 25.5741 31.456 26.2461 30.336C27.2701 28.608 27.9741 26.848 28.3581 25.056C28.7741 23.232 28.9821 21.248 28.9821 19.104C28.9821 16.576 28.7421 14.288 28.2621 12.24C27.7821 10.16 26.9821 8.4 25.8621 6.96C24.7741 5.488 23.3181 4.352 21.4941 3.552C19.6701 2.752 17.4141 2.352 14.7261 2.352C13.9261 2.352 13.1901 2.368 12.5181 2.4C11.8781 2.432 11.2541 2.464 10.6461 2.496V35.328ZM0.518125 35.328H5.84613V2.496H0.518125V1.824H9.44613C9.89413 1.824 10.3421 1.824 10.7901 1.824C11.2381 1.792 11.6861 1.76 12.1341 1.728C12.5821 1.728 13.0301 1.728 13.4781 1.728C13.9261 1.696 14.3741 1.68 14.8221 1.68C15.7821 1.68 16.6301 1.696 17.3661 1.728C18.1341 1.76 18.8381 1.824 19.4781 1.92C20.1501 1.984 20.7741 2.096 21.3501 2.256C21.9581 2.384 22.5981 2.56 23.2701 2.784C25.2221 3.424 26.9021 4.288 28.3101 5.376C29.7501 6.432 30.9181 7.664 31.8141 9.072C32.7421 10.48 33.4141 12.016 33.8301 13.68C34.2781 15.344 34.5021 17.088 34.5021 18.912C34.5021 21.024 34.2461 22.928 33.7341 24.624C33.2221 26.288 32.5181 27.776 31.6221 29.088C30.7261 30.368 29.6701 31.488 28.4541 32.448C27.2701 33.376 25.9901 34.128 24.6141 34.704C23.8461 35.056 23.1101 35.328 22.4061 35.52C21.7341 35.712 21.0301 35.856 20.2941 35.952C19.5901 36.048 18.8061 36.112 17.9421 36.144C17.0781 36.176 16.0861 36.192 14.9661 36.192C14.4861 36.192 13.9741 36.176 13.4301 36.144C12.8861 36.144 12.3421 36.128 11.7981 36.096C11.2541 36.064 10.7101 36.032 10.1661 36C9.65413 36 9.15813 36 8.67813 36H0.518125V35.328ZM45.3378 35.328H50.6658V21.552L39.8658 2.496H35.4977V1.824H50.1858V2.496H45.3858L54.9858 19.392L64.0578 2.496H59.2098V1.824H69.4818V2.496H64.8258L55.4658 20.016V35.328H60.7938V36H45.3378V35.328ZM77.3309 18.864C77.3309 21.744 77.5229 24.256 77.9069 26.4C78.2909 28.544 78.9309 30.336 79.8269 31.776C80.7229 33.216 81.8749 34.288 83.2829 34.992C84.6909 35.696 86.4349 36.048 88.5149 36.048C90.5629 36.048 92.2909 35.696 93.6989 34.992C95.1389 34.288 96.3069 33.216 97.2029 31.776C98.0989 30.336 98.7389 28.544 99.1229 26.4C99.5069 24.256 99.6989 21.744 99.6989 18.864C99.6989 16.656 99.5549 14.528 99.2669 12.48C98.9789 10.4 98.4189 8.56 97.5869 6.96C96.7869 5.328 95.6509 4.032 94.1789 3.072C92.7389 2.112 90.8509 1.632 88.5149 1.632C86.1789 1.632 84.2749 2.112 82.8029 3.072C81.3629 4.032 80.2269 5.328 79.3949 6.96C78.5949 8.56 78.0509 10.4 77.7629 12.48C77.4749 14.528 77.3309 16.656 77.3309 18.864ZM71.8109 18.864C71.8109 16.304 72.3069 13.936 73.2989 11.76C74.3229 9.584 75.6189 7.696 77.1869 6.096C78.7869 4.496 80.5789 3.248 82.5629 2.352C84.5469 1.424 86.5309 0.959999 88.5149 0.959999C90.6269 0.959999 92.6749 1.424 94.6589 2.352C96.6749 3.248 98.4669 4.496 100.035 6.096C101.603 7.696 102.851 9.584 103.779 11.76C104.739 13.936 105.219 16.304 105.219 18.864C105.219 21.104 104.787 23.296 103.923 25.44C103.059 27.584 101.875 29.488 100.371 31.152C98.8669 32.816 97.0909 34.16 95.0429 35.184C93.0269 36.208 90.8509 36.72 88.5149 36.72C86.1149 36.72 83.8909 36.224 81.8429 35.232C79.7949 34.24 78.0189 32.928 76.5149 31.296C75.0429 29.632 73.8909 27.728 73.0589 25.584C72.2269 23.408 71.8109 21.168 71.8109 18.864ZM112.084 25.68H112.612C112.964 27.408 113.412 28.864 113.956 30.048C114.532 31.232 115.156 32.208 115.828 32.976C116.5 33.744 117.204 34.336 117.94 34.752C118.676 35.168 119.412 35.472 120.148 35.664C120.916 35.856 121.636 35.968 122.308 36C123.012 36.032 123.668 36.048 124.276 36.048C125.972 36.048 127.364 35.792 128.452 35.28C129.54 34.768 130.404 34.128 131.044 33.36C131.684 32.56 132.132 31.712 132.388 30.816C132.644 29.888 132.772 29.04 132.772 28.272C132.772 27.152 132.564 26.192 132.148 25.392C131.732 24.592 131.204 23.92 130.564 23.376C129.924 22.8 129.22 22.336 128.452 21.984C127.716 21.632 127.012 21.36 126.34 21.168L120.82 19.488C118.228 18.688 116.26 17.632 114.916 16.32C113.604 15.008 112.948 13.248 112.948 11.04C112.948 9.6 113.204 8.272 113.716 7.056C114.228 5.808 114.948 4.736 115.876 3.84C116.804 2.944 117.908 2.24 119.188 1.728C120.5 1.216 121.924 0.959999 123.46 0.959999C124.58 0.959999 125.508 1.056 126.244 1.248C127.012 1.44 127.668 1.664 128.212 1.92C128.756 2.144 129.236 2.352 129.652 2.544C130.1 2.736 130.548 2.832 130.996 2.832C131.412 2.832 131.684 2.784 131.812 2.688C131.972 2.56 132.18 2.272 132.436 1.824H133.108V10.512H132.532C132.34 9.36 132.004 8.256 131.524 7.2C131.076 6.112 130.484 5.168 129.748 4.368C129.012 3.536 128.116 2.88 127.06 2.4C126.036 1.888 124.836 1.632 123.46 1.632C122.692 1.632 121.844 1.744 120.916 1.968C119.988 2.16 119.124 2.512 118.324 3.024C117.524 3.536 116.852 4.208 116.308 5.04C115.796 5.872 115.54 6.928 115.54 8.208C115.54 9.232 115.748 10.112 116.164 10.848C116.58 11.552 117.108 12.16 117.748 12.672C118.42 13.152 119.156 13.568 119.956 13.92C120.788 14.24 121.62 14.528 122.452 14.784L128.26 16.608C128.868 16.8 129.636 17.056 130.564 17.376C131.492 17.696 132.388 18.176 133.252 18.816C134.148 19.456 134.9 20.304 135.508 21.36C136.148 22.416 136.468 23.76 136.468 25.392C136.468 26.896 136.18 28.336 135.604 29.712C135.06 31.056 134.26 32.256 133.204 33.312C132.148 34.336 130.868 35.168 129.364 35.808C127.86 36.416 126.164 36.72 124.276 36.72C123.604 36.72 123.012 36.704 122.5 36.672C121.988 36.672 121.508 36.64 121.06 36.576C120.612 36.512 120.164 36.432 119.716 36.336C119.268 36.272 118.772 36.16 118.228 36C117.588 35.808 116.9 35.584 116.164 35.328C115.428 35.072 114.788 34.944 114.244 34.944C113.764 34.944 113.428 35.04 113.236 35.232C113.076 35.424 112.932 35.68 112.804 36H112.084V25.68ZM141.844 35.328H146.452L156.052 19.296L145.828 2.496H141.844V1.824H156.148V2.496H151.54L159.22 15.12L166.9 2.496H162.292V1.824H172.276V2.496H167.668L159.652 15.792L171.604 35.328H175.588V36H161.188V35.328H165.796L156.436 19.968L147.268 35.328H151.876V36H141.844V35.328Z" fill="#C1503D"/>
</svg>
